<svg width="1728" height="60" viewBox="0 0 1728 60" fill="none" xmlns="http://www.w3.org/2000/svg">
<mask id="path-1-inside-1_297_2847" fill="white">
<path d="M0 0H1728V60H0V0Z"/>
</mask>
<path d="M0 0H1728V60H0V0Z" fill="white"/>
<path d="M1728 60V59H0V60V61H1728V60Z" fill="#333333" mask="url(#path-1-inside-1_297_2847)"/>
<path d="M16 22H40" stroke="#333333" stroke-width="2"/>
<path d="M16 30H40" stroke="#333333" stroke-width="2"/>
<path d="M16 38H40" stroke="#333333" stroke-width="2"/>
<path d="M70.336 29.896C70.336 32.4347 70.6453 34.2587 71.264 35.368C71.8827 36.456 72.8 37 74.016 37C74.784 37 75.456 36.9467 76.032 36.84C76.608 36.712 77.1307 36.648 77.6 36.648C78.4533 36.648 79.072 36.8293 79.456 37.192C79.84 37.5333 80.032 37.9813 80.032 38.536C80.032 39.2613 79.7653 39.816 79.232 40.2C78.72 40.584 78.0587 40.8507 77.248 41C76.4587 41.1493 75.648 41.224 74.816 41.224C72.512 41.224 70.6773 40.7973 69.312 39.944C67.968 39.0907 66.9973 37.832 66.4 36.168C65.824 34.4827 65.536 32.392 65.536 29.896C65.536 27.4 65.824 25.288 66.4 23.56C66.9973 21.8107 67.968 20.488 69.312 19.592C70.6773 18.696 72.512 18.248 74.816 18.248C75.648 18.248 76.4587 18.3227 77.248 18.472C78.0587 18.6213 78.72 18.888 79.232 19.272C79.7653 19.656 80.032 20.2107 80.032 20.936C80.032 21.4693 79.84 21.9173 79.456 22.28C79.072 22.6427 78.4533 22.824 77.6 22.824C77.1307 22.824 76.608 22.7707 76.032 22.664C75.456 22.536 74.784 22.472 74.016 22.472C72.5227 22.472 71.5307 23.08 71.04 24.296C70.5707 25.4907 70.336 27.3573 70.336 29.896ZM87.387 41.256C85.1043 41.256 83.3017 40.6053 81.979 39.304C80.6563 38.0027 79.995 35.9013 79.995 33C79.995 30.0773 80.6563 27.976 81.979 26.696C83.3017 25.3947 85.1043 24.744 87.387 24.744C89.6697 24.744 91.4723 25.3947 92.795 26.696C94.1177 27.976 94.779 30.0773 94.779 33C94.779 35.9013 94.1177 38.0027 92.795 39.304C91.4723 40.6053 89.6697 41.256 87.387 41.256ZM87.387 37.416C87.9843 37.416 88.4857 37.2987 88.891 37.064C89.2963 36.808 89.6057 36.36 89.819 35.72C90.0537 35.08 90.171 34.1733 90.171 33C90.171 31.8267 90.0537 30.92 89.819 30.28C89.6057 29.64 89.2963 29.2027 88.891 28.968C88.4857 28.712 87.9843 28.584 87.387 28.584C86.811 28.584 86.3097 28.712 85.883 28.968C85.4777 29.2027 85.1577 29.64 84.923 30.28C84.7097 30.92 84.603 31.8267 84.603 33C84.603 34.1733 84.7097 35.08 84.923 35.72C85.1577 36.36 85.4777 36.808 85.883 37.064C86.3097 37.2987 86.811 37.416 87.387 37.416ZM104.418 41.256C102.136 41.256 100.333 40.6053 99.0103 39.304C97.6876 38.0027 97.0263 35.9013 97.0263 33C97.0263 30.0773 97.6876 27.976 99.0103 26.696C100.333 25.3947 102.136 24.744 104.418 24.744C106.701 24.744 108.504 25.3947 109.826 26.696C111.149 27.976 111.81 30.0773 111.81 33C111.81 35.9013 111.149 38.0027 109.826 39.304C108.504 40.6053 106.701 41.256 104.418 41.256ZM104.418 37.416C105.016 37.416 105.517 37.2987 105.922 37.064C106.328 36.808 106.637 36.36 106.85 35.72C107.085 35.08 107.202 34.1733 107.202 33C107.202 31.8267 107.085 30.92 106.85 30.28C106.637 29.64 106.328 29.2027 105.922 28.968C105.517 28.712 105.016 28.584 104.418 28.584C103.842 28.584 103.341 28.712 102.914 28.968C102.509 29.2027 102.189 29.64 101.954 30.28C101.741 30.92 101.634 31.8267 101.634 33C101.634 34.1733 101.741 35.08 101.954 35.72C102.189 36.36 102.509 36.808 102.914 37.064C103.341 37.2987 103.842 37.416 104.418 37.416ZM117.224 41.256C116.392 41.256 115.795 41.032 115.432 40.584C115.091 40.136 114.92 39.528 114.92 38.76V19.112C114.92 18.344 115.091 17.736 115.432 17.288C115.795 16.84 116.392 16.616 117.224 16.616C118.056 16.616 118.643 16.84 118.984 17.288C119.347 17.736 119.528 18.344 119.528 19.112V31.016C120.659 30.3333 121.661 29.5653 122.536 28.712C123.411 27.8373 124.008 27.0053 124.328 26.216C124.627 25.4907 125.053 25 125.608 24.744C126.163 24.488 126.771 24.52 127.432 24.84C128.349 25.288 128.776 25.9707 128.712 26.888C128.691 27.656 128.339 28.52 127.656 29.48C126.995 30.4187 126.173 31.2293 125.192 31.912C126.429 32.3387 127.421 33.1173 128.168 34.248C128.936 35.3573 129.32 36.968 129.32 39.08C129.32 40.5307 128.563 41.256 127.048 41.256C125.491 41.256 124.712 40.5307 124.712 39.08C124.712 37.5227 124.467 36.3813 123.976 35.656C123.485 34.9307 122.835 34.568 122.024 34.568C121.277 34.568 120.669 34.8453 120.2 35.4C119.752 35.9547 119.528 36.9147 119.528 38.28C119.528 39.5173 119.347 40.328 118.984 40.712C118.621 41.0747 118.035 41.256 117.224 41.256ZM134.664 21.992C133.874 21.992 133.213 21.736 132.68 21.224C132.146 20.712 131.88 20.0827 131.88 19.336C131.88 18.5467 132.146 17.896 132.68 17.384C133.213 16.872 133.874 16.616 134.664 16.616C135.474 16.616 136.136 16.872 136.648 17.384C137.181 17.896 137.448 18.5467 137.448 19.336C137.448 20.0827 137.181 20.712 136.648 21.224C136.136 21.736 135.474 21.992 134.664 21.992ZM136.968 39.112C136.968 40.5413 136.221 41.256 134.728 41.256C134.002 41.256 133.426 41.0853 133 40.744C132.573 40.3813 132.36 39.8373 132.36 39.112V26.92C132.36 26.2373 132.53 25.704 132.872 25.32C133.234 24.936 133.832 24.744 134.664 24.744C135.496 24.744 136.082 24.936 136.424 25.32C136.786 25.704 136.968 26.2373 136.968 26.92V39.112ZM142.694 41.256C141.158 41.256 140.39 40.5307 140.39 39.08V31.4C140.39 29.352 141.04 27.7307 142.342 26.536C143.664 25.3413 145.403 24.744 147.558 24.744C149.712 24.744 151.44 25.3413 152.742 26.536C154.064 27.7307 154.726 29.352 154.726 31.4V39.08C154.726 40.5307 153.958 41.256 152.422 41.256C150.886 41.256 150.118 40.5307 150.118 39.08V31.656C150.118 30.6533 149.894 29.896 149.446 29.384C148.998 28.8507 148.368 28.584 147.558 28.584C146.747 28.584 146.118 28.8507 145.67 29.384C145.222 29.896 144.998 30.6533 144.998 31.656V39.08C144.998 40.5307 144.23 41.256 142.694 41.256ZM172.371 42.952C172.371 44.7653 171.517 46.12 169.811 47.016C168.104 47.912 165.661 48.36 162.483 48.36C160.84 48.36 159.635 48.1467 158.867 47.72C158.12 47.3147 157.747 46.6747 157.747 45.8C157.747 45.1813 157.917 44.7653 158.259 44.552C158.6 44.36 159.059 44.264 159.635 44.264C160.061 44.264 160.424 44.2853 160.723 44.328C161.021 44.392 161.341 44.4453 161.683 44.488C162.045 44.552 162.493 44.584 163.027 44.584C164.712 44.584 165.917 44.456 166.643 44.2C167.389 43.944 167.763 43.4213 167.763 42.632C167.763 41.9707 167.496 41.4373 166.963 41.032C166.429 40.6267 165.757 40.424 164.947 40.424C160.04 40.424 157.587 37.8107 157.587 32.584C157.587 29.9173 158.205 27.944 159.443 26.664C160.68 25.384 162.525 24.744 164.979 24.744C166.6 24.744 167.944 25.0213 169.011 25.576C169.523 23.656 170.611 22.696 172.275 22.696C173.085 22.696 173.704 22.9093 174.131 23.336C174.579 23.7413 174.803 24.3387 174.803 25.128C174.803 25.8533 174.589 26.376 174.163 26.696C173.736 27.016 173.053 27.176 172.115 27.176C171.709 27.176 171.336 27.208 170.995 27.272C171.912 28.552 172.371 30.3333 172.371 32.616C172.371 34.0453 172.157 35.2293 171.731 36.168C171.325 37.1067 170.568 37.8853 169.459 38.504C170.525 38.888 171.272 39.4853 171.699 40.296C172.147 41.0853 172.371 41.9707 172.371 42.952ZM162.195 32.584C162.195 35.2507 163.123 36.584 164.979 36.584C166.835 36.584 167.763 35.2507 167.763 32.584C167.763 31.1973 167.528 30.184 167.059 29.544C166.611 28.904 165.917 28.584 164.979 28.584C164.061 28.584 163.368 28.904 162.899 29.544C162.429 30.184 162.195 31.1973 162.195 32.584Z" fill="#FF3D4A"/>
<path d="M1665 39L1660.65 34.65M1663 29C1663 33.4183 1659.42 37 1655 37C1650.58 37 1647 33.4183 1647 29C1647 24.5817 1650.58 21 1655 21C1659.42 21 1663 24.5817 1663 29Z" stroke="#333333" stroke-width="2" stroke-linecap="round" stroke-linejoin="round"/>
<path d="M1700 30C1699.17 30 1698.47 29.7063 1697.88 29.1188C1697.29 28.5313 1697 27.825 1697 27C1697 26.175 1697.29 25.4688 1697.88 24.8813C1698.47 24.2938 1699.17 24 1700 24C1700.83 24 1701.53 24.2938 1702.12 24.8813C1702.71 25.4688 1703 26.175 1703 27C1703 27.825 1702.71 28.5313 1702.12 29.1188C1701.53 29.7063 1700.83 30 1700 30ZM1694 36V33.9C1694 33.475 1694.11 33.0844 1694.33 32.7281C1694.55 32.3719 1694.84 32.1 1695.2 31.9125C1695.97 31.525 1696.76 31.2344 1697.56 31.0406C1698.36 30.8469 1699.17 30.75 1700 30.75C1700.83 30.75 1701.64 30.8469 1702.44 31.0406C1703.24 31.2344 1704.03 31.525 1704.8 31.9125C1705.16 32.1 1705.45 32.3719 1705.67 32.7281C1705.89 33.0844 1706 33.475 1706 33.9V36H1694ZM1695.5 34.5H1704.5V33.9C1704.5 33.7625 1704.47 33.6375 1704.4 33.525C1704.33 33.4125 1704.24 33.325 1704.12 33.2625C1703.45 32.925 1702.77 32.6719 1702.08 32.5031C1701.39 32.3344 1700.7 32.25 1700 32.25C1699.3 32.25 1698.61 32.3344 1697.92 32.5031C1697.23 32.6719 1696.55 32.925 1695.88 33.2625C1695.76 33.325 1695.67 33.4125 1695.6 33.525C1695.53 33.6375 1695.5 33.7625 1695.5 33.9V34.5ZM1700 28.5C1700.41 28.5 1700.77 28.3531 1701.06 28.0594C1701.35 27.7656 1701.5 27.4125 1701.5 27C1701.5 26.5875 1701.35 26.2344 1701.06 25.9406C1700.77 25.6469 1700.41 25.5 1700 25.5C1699.59 25.5 1699.23 25.6469 1698.94 25.9406C1698.65 26.2344 1698.5 26.5875 1698.5 27C1698.5 27.4125 1698.65 27.7656 1698.94 28.0594C1699.23 28.3531 1699.59 28.5 1700 28.5Z" fill="#FF3D4A"/>
<circle cx="1700" cy="30" r="11" stroke="#FF3D4A" stroke-width="2"/>
</svg>
